# xmcd
#
# Track frame offsets: 
#        150
#        11654
#        24426
#        36667
#        60101
#        75697
#        86911
#        106685
#        117237
#        138272
#        150866
#        179005
#
# Disc length: 2602 seconds
#
# Revision: 0
# Processed by: cddbd v1.5.2PL0 Copyright (c) Steve Scherf et al.
# Submitted via: ExactAudioCopyFreeDBPlugin 1.0
#
DISCID=8c0a280c
DTITLE=Becca Langsford - Big Surprise
DYEAR=1900
DGENRE=Blues
TTITLE0=(I WAS) BORN TO CRY
TTITLE1=KING SIZE PAPA
TTITLE2=WHILE I WAIT FOR YOU
TTITLE3=YOU'RE IN FOR A BIG SURPRISE
TTITLE4=SOME THESE DAYS I'LL BE GONE
TTITLE5=DO IT THIS WAY
TTITLE6=LOVE ME LIKE A MAN
TTITLE7=HOT and COLD RUNNING TEARS
TTITLE8=LORD, I JUST CAN'T KEEP FROM CRYING
TTITLE9=NEVER NO MORE
TTITLE10=(YOU DON'T) MISS YOUR WATER
TTITLE11=MY MAN'S AN UNDERTAKER
EXTD=
EXTT0=
EXTT1=
EXTT2=
EXTT3=
EXTT4=
EXTT5=
EXTT6=
EXTT7=
EXTT8=
EXTT9=
EXTT10=
EXTT11=
PLAYORDER=
